<?xml version="1.0" encoding="UTF-8" standalone="no"?>
<svg width="456" height="456" viewBox="0 0 456 456" xmlns="http://www.w3.org/2000/svg">
    <!-- Sun circle -->
    <circle cx="228" cy="228" r="72" fill="#FFFFFF"/>
    <!-- Sun rays — 12 rounded rays radiating outward -->
    <g fill="#FFFFFF">
        <rect x="222" y="100" width="12" height="52" rx="6" transform="rotate(0,228,228)"/>
        <rect x="222" y="100" width="12" height="52" rx="6" transform="rotate(30,228,228)"/>
        <rect x="222" y="100" width="12" height="52" rx="6" transform="rotate(60,228,228)"/>
        <rect x="222" y="100" width="12" height="52" rx="6" transform="rotate(90,228,228)"/>
        <rect x="222" y="100" width="12" height="52" rx="6" transform="rotate(120,228,228)"/>
        <rect x="222" y="100" width="12" height="52" rx="6" transform="rotate(150,228,228)"/>
        <rect x="222" y="100" width="12" height="52" rx="6" transform="rotate(180,228,228)"/>
        <rect x="222" y="100" width="12" height="52" rx="6" transform="rotate(210,228,228)"/>
        <rect x="222" y="100" width="12" height="52" rx="6" transform="rotate(240,228,228)"/>
        <rect x="222" y="100" width="12" height="52" rx="6" transform="rotate(270,228,228)"/>
        <rect x="222" y="100" width="12" height="52" rx="6" transform="rotate(300,228,228)"/>
        <rect x="222" y="100" width="12" height="52" rx="6" transform="rotate(330,228,228)"/>
    </g>
</svg>